<svg width="769" height="301" viewBox="0 0 769 301" fill="none" xmlns="http://www.w3.org/2000/svg">
<path d="M684.503 6.00631C687.909 12.7085 691.318 19.4088 694.728 26.1093V29.7002V33.2848H627.398V29.2934V25.2957L636.641 6.6207C626.409 -0.804748 615.942 -0.0925046 607.058 7.39185C610.464 13.6214 613.885 19.8393 617.306 26.0575L617.041 30.6027L616.406 34.4288L582.273 35.0516L548.139 35.6745V32.1535V28.6325L553.23 19.3341L558.32 10.0422C550.563 -0.280197 537.443 3.49374 530.016 7.92572L535.118 17.955L540.22 27.9842V31.7721V35.5665C540.22 35.5665 509.905 36.0632 494.774 38.4519C492.721 48.2884 483.338 52.8829 476.618 58.3896C435.372 58.1664 353.144 60.8365 353.144 60.8365L351.975 72.0797L477.843 72.3465C488.79 67.1986 495.748 57.2403 503.588 47.5086L689.725 43.3203L727.35 41.9983C732.373 56.1192 737.301 69.7968 745.434 81.969C750.539 87.7249 752.717 94.0485 755.014 101.557C757.61 107.436 758.042 112.757 758.042 119.124C758.879 126.085 756.458 131.602 754.358 137.969C752.716 145.975 749.014 151.631 744.778 157.964C738.921 164.931 736.348 173.646 733.113 182.401L727.35 198.023L501.608 190.282C499.374 187.019 497.143 183.754 494.912 180.488C491.705 188.149 495.025 202.109 518.104 202.65L539.183 203.292C539.183 203.292 540.03 208.394 540.457 210.945L529.807 230.387C542.318 242.061 551.467 235.867 558.045 231.562L548.581 210.97C549.163 208.412 550.318 203.292 550.318 203.292L594.627 202.898L694.711 206.718V209.565V212.419L686.802 233.545C698.143 240.931 705.204 238.59 715.095 230.259L704.627 212.502V209.61V206.718H719.54H728.072C733.822 207.65 735.216 204.085 736.77 198.728L742.175 185.038C744.692 175.794 749.239 169.077 754.512 161.853C758.497 157.77 773 132.316 767.942 110.652C766.979 103.637 764.309 97.7142 761.555 91.4895L757.513 82.3501C745.404 67.6048 739.824 48.9828 733.516 30.4562C724.44 31.209 715.364 31.9542 706.288 32.6997L705.317 29.7825L704.346 26.8653L715.013 7.39152C704.256 -3.81652 696.532 -0.603011 684.503 6.00631ZM692.544 73.2237L529.52 71.2789C470.46 76.5785 482.552 189.812 538.256 195.297C557.547 199.252 579.832 196.03 594.627 202.898C613.136 208.364 616.021 239.815 598.355 249.04C575.997 252.791 553.547 252.472 531.009 252.555L-1 252.695V300.947L598.83 299.339C634.808 291.942 664.423 270.633 664.234 223.132C663.965 155.359 605.623 152.177 554.626 150.439C546.611 149.451 536.713 149.148 540.413 124.908H670.18H737.824C737.535 87.0729 721.783 74.0796 692.544 73.2237Z" fill="#292929"/>
</svg>
